<svg width="50" height="50" viewBox="0 0 50 50" fill="none" xmlns="http://www.w3.org/2000/svg">
<path d="M44.6429 0H5.35714C2.39955 0 0 2.39955 0 5.35714V44.6429C0 47.6004 2.39955 50 5.35714 50H44.6429C47.6004 50 50 47.6004 50 44.6429V5.35714C50 2.39955 47.6004 0 44.6429 0ZM27.2098 38.9955C27.2098 43.8616 24.3527 46.0826 20.1897 46.0826C16.4286 46.0826 14.2522 44.1406 13.1362 41.7857L16.9643 39.4754C17.7009 40.7813 18.3705 41.8862 19.9888 41.8862C21.529 41.8862 22.5112 41.2835 22.5112 38.9286V22.9576H27.2098V38.9955ZM38.3259 46.0826C33.9621 46.0826 31.1384 44.0067 29.7656 41.2835L33.5937 39.0737C34.5982 40.7143 35.9152 41.9308 38.2254 41.9308C40.1674 41.9308 41.4174 40.9598 41.4174 39.6094C41.4174 38.0022 40.1451 37.433 37.9911 36.4844L36.8192 35.9821C33.4263 34.5424 31.183 32.7232 31.183 28.8951C31.183 25.3683 33.8728 22.6897 38.058 22.6897C41.0491 22.6897 43.192 23.7277 44.7321 26.4509L41.0714 28.7946C40.2679 27.3549 39.3973 26.7857 38.0469 26.7857C36.6741 26.7857 35.8036 27.6562 35.8036 28.7946C35.8036 30.2009 36.6741 30.7701 38.6942 31.6518L39.8661 32.154C43.8616 33.8616 46.1049 35.6138 46.1049 39.5424C46.1049 43.7612 42.779 46.0826 38.3259 46.0826Z" fill="#429EBD"/>
</svg>
