<svg width="53" height="50" viewBox="0 0 53 50" fill="none" xmlns="http://www.w3.org/2000/svg">
<path d="M53 24.8756C53 20.8955 48.5244 17.6617 41.9289 15.4229C43.5778 8.20895 42.8711 2.48756 39.8089 0.746269C38.8667 0.248757 38.16 0 37.2178 0C34.1556 0 30.3867 2.23881 26.6178 6.21891C22.6133 2.23881 18.8444 0 15.7822 0C14.84 0 13.8978 0.248757 13.1911 0.746269C10.1289 2.48756 9.42222 8.20895 11.0711 15.4229C4.47556 17.6617 0 20.8955 0 24.8756C0 28.8557 4.47556 32.0896 11.0711 34.3284C9.42222 41.5423 9.89333 47.2637 13.1911 49.2537C13.8978 49.7512 14.84 50 15.7822 50C18.8444 50 22.6133 47.7612 26.3822 43.7811C30.1511 47.7612 34.1556 50 36.9822 50C37.9244 50 38.8667 49.7512 39.5733 49.2537C42.6356 47.2637 43.3422 41.5423 41.6933 34.3284C48.5244 32.0896 53 28.607 53 24.8756ZM37.2178 2.73632C37.6889 2.73632 38.16 2.73632 38.3956 2.98507C39.8089 3.9801 40.5156 7.21393 40.0444 11.4428C39.8089 12.4378 39.8089 13.6816 39.5733 14.6766C37.4533 14.1791 35.0978 13.6816 32.7422 13.4328C31.3289 11.4428 29.9156 9.45274 28.5022 7.9602C31.8 4.47761 35.0978 2.73632 37.2178 2.73632ZM33.6844 29.3532C32.9778 30.8458 32.0356 32.0896 31.3289 33.5821C29.68 33.5821 28.2667 33.8308 26.6178 33.8308C24.9689 33.8308 23.32 33.8308 21.9067 33.5821C20.9644 32.3383 20.2578 30.8458 19.5511 29.3532C18.8444 27.8607 18.1378 26.3682 17.4311 24.8756C18.1378 23.3831 18.8444 21.8905 19.5511 20.398C20.2578 18.9055 21.2 17.4129 22.1422 16.1692C23.5556 16.1692 25.2044 15.9204 26.8533 15.9204C28.5022 15.9204 29.9156 15.9204 31.5644 16.1692C32.5067 17.4129 33.2133 18.9055 34.1556 20.398C34.8622 21.8905 35.5689 23.3831 36.2756 24.8756C35.3333 26.3682 34.3911 27.8607 33.6844 29.3532ZM37.2178 28.1095C37.6889 29.602 38.16 30.8458 38.6311 32.3383C37.2178 32.5871 35.8044 32.8358 34.3911 33.0846C34.8622 32.3383 35.3333 31.592 35.8044 30.597C36.2756 29.8507 36.7467 28.8557 37.2178 28.1095ZM26.3822 39.801C25.44 38.806 24.4978 37.5622 23.5556 36.3184C24.4978 36.3184 25.44 36.3184 26.3822 36.3184C27.3244 36.3184 28.2667 36.3184 29.2089 36.3184C28.2667 37.5622 27.3244 38.806 26.3822 39.801ZM18.3733 33.0846C16.96 32.8358 15.5467 32.5871 14.1333 32.3383C14.6044 30.8458 15.0756 29.602 15.5467 28.1095C16.0178 28.8557 16.4889 29.8507 16.96 30.597C17.4311 31.592 17.9022 32.3383 18.3733 33.0846ZM15.7822 21.6418C15.3111 20.1493 14.84 18.6567 14.3689 17.4129C15.7822 17.1642 17.1956 16.9154 18.6089 16.6667C18.1378 17.4129 17.6667 18.408 17.1956 19.1542C16.4889 19.9005 16.0178 20.8955 15.7822 21.6418ZM26.3822 9.95025C27.3244 10.9453 28.2667 12.1891 29.2089 13.4328C28.2667 13.4328 27.3244 13.4328 26.3822 13.4328C25.44 13.4328 24.4978 13.4328 23.5556 13.4328C24.4978 12.1891 25.44 10.9453 26.3822 9.95025ZM35.8044 19.1542C35.3333 18.1592 34.8622 17.4129 34.3911 16.6667C35.8044 16.9154 37.2178 17.1642 38.6311 17.4129C38.16 18.9055 37.6889 20.398 37.2178 21.6418C36.7467 20.8955 36.2756 19.9005 35.8044 19.1542ZM12.9556 11.4428C12.4844 7.21393 12.9556 3.9801 14.6044 2.98507C14.84 2.73632 15.3111 2.73632 15.7822 2.73632C17.9022 2.73632 21.2 4.47761 24.7333 8.20896C23.32 9.95025 21.9067 11.6915 20.4933 13.6816C18.1378 13.9303 15.7822 14.4279 13.6622 14.9254C13.1911 13.6816 12.9556 12.4378 12.9556 11.4428ZM8.71556 30.3483C4.94667 28.607 2.59111 26.6169 2.59111 24.6269C2.59111 22.8856 4.94667 20.6468 8.71556 18.9055C9.65778 18.408 10.6 18.1592 11.7778 17.9104C12.4844 20.1493 13.1911 22.3881 14.1333 24.6269C13.1911 26.8657 12.2489 29.1045 11.7778 31.3433C10.6 31.3433 9.65778 30.8458 8.71556 30.3483ZM14.6044 46.7662C13.1911 45.7711 12.4844 42.5373 12.9556 38.3085C13.1911 37.3134 13.1911 36.0697 13.6622 34.8259C15.7822 35.3234 17.9022 35.8209 20.2578 36.0697C21.6711 38.0597 23.0844 40.0497 24.7333 41.791C21.2 45.2736 17.9022 47.2637 15.7822 47.2637C15.3111 47.0149 14.84 47.0149 14.6044 46.7662ZM40.0444 38.3085C40.5156 42.5373 40.0444 45.7711 38.3956 46.7662C38.16 47.0149 37.6889 47.0149 37.2178 47.0149C35.0978 47.0149 31.8 45.2736 28.2667 41.5423C29.68 39.801 31.3289 38.0597 32.7422 35.8209C35.0978 35.5721 37.4533 35.3234 39.3378 34.5771C39.5733 36.0697 39.8089 37.3134 40.0444 38.3085ZM44.2844 30.3483C43.3422 30.8458 42.4 31.0945 41.2222 31.592C40.5156 29.3532 39.8089 27.1144 38.8667 24.8756C39.8089 22.6368 40.7511 20.1493 41.2222 18.1592C42.4 18.408 43.3422 18.9055 44.2844 19.1542C48.0533 20.8955 50.4089 22.8856 50.4089 24.8756C50.4089 26.6169 48.0533 28.8557 44.2844 30.3483Z" fill="#429EBD"/>
<path d="M26.6177 30.0996C29.4444 30.0996 31.5644 27.8607 31.5644 24.8757C31.5644 21.8906 29.4444 19.6518 26.6177 19.6518C23.791 19.6518 21.671 21.8906 21.671 24.8757C21.671 27.8607 23.791 30.0996 26.6177 30.0996Z" fill="#429EBD"/>
</svg>
