<svg width="50" height="50" viewBox="0 0 50 50" fill="none" xmlns="http://www.w3.org/2000/svg">
<path d="M34.6521 34.3833C36.4625 34.227 37.8667 32.6333 37.775 30.7291C37.6792 28.8249 36.1188 27.2958 34.2167 27.2958H34.0896C32.125 27.3604 30.5938 29.0125 30.6563 30.9812C30.7188 31.9791 31.1271 32.7916 31.6854 33.3833C29.5021 37.6291 26.225 40.7499 21.2604 43.3729C17.9208 45.1187 14.3938 45.777 10.9604 45.3083C8.08958 44.9041 5.84375 43.6208 4.46875 41.5625C2.41042 38.4395 2.22292 35.0708 3.9375 31.6999C5.18958 29.2645 7.06042 27.4854 8.31042 26.6104C7.99792 25.7999 7.62292 24.427 7.43542 23.3979C-1.80625 30.0166 -0.866668 39.0666 1.94167 43.3437C4.03333 46.4645 8.31042 48.4604 12.9917 48.4604C14.2396 48.4604 15.5521 48.3687 16.8313 48.0562C24.9479 46.4958 31.0958 41.627 34.6229 34.4479L34.6521 34.3833ZM45.7938 26.5791C40.9583 20.8979 33.8396 17.777 25.7229 17.777H24.6604C24.1333 16.6229 22.9167 15.9041 21.5417 15.9041H21.4479C19.4833 15.9041 17.9521 17.5916 18.0167 19.5562C18.0792 21.427 19.6708 22.9895 21.575 22.9895H21.7292C23.1354 22.927 24.3521 22.052 24.85 20.8041H26.0063C30.8167 20.8041 35.3708 22.2083 39.5229 24.9541C42.7042 27.0458 44.9854 29.7916 46.2646 33.0708C47.3854 35.7541 47.325 38.377 46.1708 40.5645C44.3917 43.9958 41.3937 45.8083 37.4312 45.8083C34.9333 45.8083 32.5 45.027 31.25 44.4666C30.5021 45.0874 29.2521 46.1187 28.3458 46.7437C31.0917 47.9895 33.8708 48.7083 36.5542 48.7083C42.6417 48.7083 47.1646 45.277 48.8833 41.9666C50.7542 38.2208 50.6 31.9166 45.8229 26.5166L45.7938 26.5791ZM13.5208 35.5041C13.5812 37.377 15.1729 38.9375 17.0792 38.9375H17.2042C19.2021 38.875 20.7313 37.2229 20.6375 35.2541C20.6375 33.3812 19.0146 31.8229 17.1104 31.8229H16.9833C16.8583 31.8229 16.6729 31.8229 16.5146 31.8833C13.925 27.5124 12.8312 22.8291 13.2396 17.777C13.4875 13.9687 14.7375 10.6583 16.9833 7.91245C18.8563 5.57078 22.3833 4.41453 24.7875 4.35412C31.5292 4.22703 34.3396 12.627 34.5563 15.9666L37.6771 16.902C36.9583 6.66453 30.5938 1.2937 24.5063 1.2937C18.7938 1.2937 13.5208 5.44578 11.3958 11.5333C8.49375 19.65 10.3979 27.452 13.9562 33.6958C13.6458 34.102 13.4583 34.8187 13.5208 35.5041Z" fill="#429EBD"/>
</svg>
