<svg width="50" height="50" viewBox="0 0 50 50" fill="none" xmlns="http://www.w3.org/2000/svg">
<path d="M45.1167 0H4.88333C2.1875 0 0 2.1875 0 4.88333V45.1167C0 47.8125 2.1875 50 4.88333 50H45.1167C47.8125 50 50 47.8125 50 45.1167V4.88333C50 2.1875 47.8125 0 45.1167 0ZM29.0042 27.7417H22.7333V45.6042H17.7646V27.7417H11.5229V23.7292H29.0042V27.7417ZM45.2042 42.4375C44.2312 44.1771 42.4437 45.1563 40.5417 45.5625C38.3333 46.0333 35.9854 46.0083 33.7708 45.5937C32.6854 45.3896 31.7458 45.0854 30.9521 44.6771V39.7875C31.8396 40.5312 32.8021 41.0896 33.8417 41.4604C34.8812 41.8333 35.9312 42.0187 36.9896 42.0187C37.9271 42.0187 38.9708 41.9021 39.7792 41.3854C40.3333 41.0312 40.7042 40.4729 40.7042 39.8042C40.7042 38.8938 40.0458 38.2062 39.3354 37.7271C38.2958 37.0271 37.1021 36.5708 35.95 36.0917C34.2375 35.3792 32.9625 34.5083 32.1208 33.4792C30.6583 31.6896 30.4187 28.8312 31.5479 26.8104C32.5125 25.0854 34.2896 24.0687 36.1646 23.6167C38.2083 23.125 40.4271 23.125 42.5 23.4479C43.3812 23.5854 44.1937 23.7958 44.9375 24.0812V28.65C44.5708 28.3958 44.1708 28.1708 43.7375 27.9792C42.8833 27.5979 41.9604 27.3396 41.0333 27.2146C40.1062 27.0896 39.1292 27.0687 38.2146 27.2833C37.4937 27.45 36.7354 27.7854 36.3187 28.4292C36.1458 28.7 36.0583 29.0021 36.0583 29.3375C36.0583 29.7042 36.1542 30.0333 36.3479 30.3229C36.8375 31.0583 37.7 31.5312 38.4729 31.9125C39.8312 32.5792 41.2563 33.0792 42.5604 33.8521C43.8271 34.6 44.9521 35.6417 45.5021 37.0292C45.7667 37.6958 45.9 38.4729 45.9 39.3583C45.8979 40.5812 45.6667 41.6083 45.2042 42.4375Z" fill="#429EBD"/>
</svg>
