<svg width="41" height="35" viewBox="0 0 57 50" fill="none" xmlns="http://www.w3.org/2000/svg">
<path d="M53.2 23.0769H45.4252C45.5377 22.769 45.5969 22.4437 45.6 22.1154V20.1923C45.5976 19.5978 45.4137 19.0186 45.0736 18.5339C44.7335 18.0493 44.2538 17.6828 43.7 17.4846V15.3846C43.7 11.3044 42.0986 7.39122 39.248 4.50605C36.3975 1.62087 32.5313 0 28.5 0C24.4687 0 20.6025 1.62087 17.752 4.50605C14.9014 7.39122 13.3 11.3044 13.3 15.3846V17.4846C12.7462 17.6828 12.2665 18.0493 11.9264 18.5339C11.5863 19.0186 11.4024 19.5978 11.4 20.1923V22.1154C11.4031 22.4437 11.4623 22.769 11.5748 23.0769H3.8C0.1045 23.0769 0 35.1635 0 36.5385C0 37.9135 0.1045 50 3.8 50H53.2C56.8955 50 57 37.9135 57 36.5385C57 35.1635 56.8955 23.0769 53.2 23.0769ZM15.2 25H17.1V29.4096L16.15 30.3712L15.2 29.4096V25ZM19 17.4846V15.3846C19 12.8345 20.0009 10.3887 21.7825 8.58551C23.5641 6.78228 25.9804 5.76923 28.5 5.76923C31.0196 5.76923 33.4359 6.78228 35.2175 8.58551C36.9991 10.3887 38 12.8345 38 15.3846V17.4846C37.4462 17.6828 36.9665 18.0493 36.6264 18.5339C36.2863 19.0186 36.1024 19.5978 36.1 20.1923V22.1154C36.1031 22.4437 36.1623 22.769 36.2748 23.0769H20.7252C20.8377 22.769 20.8969 22.4437 20.9 22.1154V20.1923C20.8976 19.5978 20.7137 19.0186 20.3736 18.5339C20.0335 18.0493 19.5538 17.6828 19 17.4846ZM39.9 25H41.8V29.4096L40.85 30.3712L39.9 29.4096V25ZM28.5 1.92308C32.0262 1.92689 35.4069 3.34639 37.9004 5.87009C40.3938 8.39379 41.7962 11.8156 41.8 15.3846V17.3077H39.9V15.3846C39.9 12.3244 38.6989 9.38957 36.561 7.22569C34.4231 5.06181 31.5235 3.84615 28.5 3.84615C25.4765 3.84615 22.5769 5.06181 20.439 7.22569C18.3011 9.38957 17.1 12.3244 17.1 15.3846V17.3077H15.2V15.3846C15.2038 11.8156 16.6062 8.39379 19.0996 5.87009C21.5931 3.34639 24.9738 1.92689 28.5 1.92308ZM7.6665 48.0769H5.4435C3.857 44.6058 3.8 37.5673 3.8 36.5385C3.8 35.5096 3.857 28.4712 5.4435 25H7.6665C6.9445 25.4904 5.7 29.6731 5.7 36.5385C5.7 43.4038 6.9445 47.5865 7.6665 48.0769ZM22.8 46.1538H20.9V44.2308H22.8V46.1538ZM32.3 46.1538H24.7V44.2308H32.3V46.1538ZM36.1 46.1538H34.2V44.2308H36.1V46.1538ZM51.5565 48.0769H49.3335C50.0555 47.5865 51.3 43.4038 51.3 36.5385C51.3 29.6731 50.0555 25.4904 49.3335 25H51.5565C53.143 28.4712 53.2 35.5096 53.2 36.5385C53.2 37.5673 53.143 44.6058 51.5565 48.0769Z" fill="#429EBD"/>
</svg>
