<svg width="40" height="40" viewBox="0 0 50 50" fill="none" xmlns="http://www.w3.org/2000/svg">
<path fill-rule="evenodd" clip-rule="evenodd" d="M2.69362 9.74814C2.39468 9.45716 21.8854 1.45495 25.2933 0C25.3531 0 46.8765 10.7666 49.9855 12.2943C50.105 12.367 49.4474 20.0055 49.4474 20.0055C49.4474 20.0783 49.3876 20.0783 45.5014 22.4062C43.8274 23.4246 26.4292 34.1913 26.2499 34.1185C18.5373 28.4442 10.7051 22.9154 2.99256 17.1684C2.99256 17.0956 3.41107 16.9501 3.47085 16.9501C3.71 16.8774 24.3965 31.6451 26.489 33.1728C26.5488 33.1728 48.6701 19.7145 48.7299 19.569C48.7897 17.4594 49.0887 15.2042 49.2082 13.0218C49.2082 13.0218 27.1467 26.0436 26.6684 25.9708C25.8314 25.8253 4.84597 11.7851 2.69362 9.74814Z" fill="#429EBD"/>
<path fill-rule="evenodd" clip-rule="evenodd" d="M3.59043 18.8416C4.36766 18.3323 4.36766 18.3323 4.36766 18.3323C10.8247 23.0609 17.3415 27.7167 23.7986 32.4453C23.8584 32.4453 10.1073 26.1891 3.76979 23.3519C1.07936 22.1152 0.302119 21.606 0.00318145 21.3877C-0.116393 21.315 3.17191 19.2053 3.59043 18.8416Z" fill="#429EBD"/>
<path fill-rule="evenodd" clip-rule="evenodd" d="M27.1467 33.9003C27.1467 33.9003 35.5767 28.6624 37.191 27.644C37.2507 27.644 32.1688 32.8818 29.8371 35.0642C29.7773 35.0642 27.5054 34.0457 27.1467 33.9003Z" fill="#429EBD"/>
<path fill-rule="evenodd" clip-rule="evenodd" d="M45.3819 22.6972L45.9797 22.3334C45.9797 22.9882 45.9199 24.6614 45.9199 25.1706C45.9199 25.1706 45.2623 26.1163 43.2295 28.2987C42.0935 29.5354 29.7175 42.9209 29.7175 42.9209C25.1139 40.8113 0.421705 28.6625 0.481493 28.5897C0.720642 28.3715 0.959792 28.1532 1.19894 28.0077C1.19894 27.935 1.19894 28.4442 1.19894 28.517C1.25873 28.7352 29.5382 42.1207 29.598 42.1207C33.9625 37.6104 38.2671 32.7363 42.5718 28.1532C44.6644 25.8981 45.0829 25.3161 45.2623 25.0251C45.2623 24.9523 45.3221 23.2064 45.3819 22.6972Z" fill="#429EBD"/>
<path fill-rule="evenodd" clip-rule="evenodd" d="M14.113 35.6462C14.0532 35.5734 18.4177 42.7027 18.4775 42.7027C20.5103 42.0479 22.543 41.3205 24.6356 40.593C22.1843 39.429 13.9336 35.4279 13.9336 35.5007C13.9934 35.5734 14.113 35.7189 14.113 35.7189C14.1728 35.7917 14.113 35.7189 14.113 35.6462Z" fill="#429EBD"/>
<path fill-rule="evenodd" clip-rule="evenodd" d="M43.1099 28.517C43.1697 28.517 47.0559 32.6636 47.0559 32.6636C43.2295 34.0458 39.4031 35.5007 35.5767 36.7374C35.5169 36.7374 40.2401 31.6451 41.8544 29.9719C43.1099 28.5897 43.1099 28.517 43.1099 28.517Z" fill="#429EBD"/>
<path fill-rule="evenodd" clip-rule="evenodd" d="M46.0993 33.1728C46.0993 33.1001 46.8167 32.8818 46.8765 32.8818C47.0559 32.8091 47.0559 32.8091 47.0559 32.8091C47.0559 32.8091 46.6972 39.6473 46.6374 39.6473C46.6374 39.6473 46.6374 39.7201 41.974 41.3933C37.2508 43.1392 27.9837 46.5583 23.3203 48.3043C18.6569 50.0502 18.6569 50.0502 18.6569 49.9774C16.3849 46.1218 8.61258 32.7363 8.73215 32.8091C8.91152 32.8818 9.21045 33.0273 9.38982 33.1001C10.1073 33.4638 17.222 46.7766 18.9558 49.1772C18.9558 49.1772 39.4031 41.6842 41.2565 41.0295C45.7406 39.3563 45.8004 39.3563 45.8004 39.3563C45.8004 39.3563 46.0993 33.8275 46.0993 33.1728Z" fill="#429EBD"/>
</svg>
