<svg width="45" height="39" viewBox="0 0 63 56" fill="none" xmlns="http://www.w3.org/2000/svg">
<path fill-rule="evenodd" clip-rule="evenodd" d="M60.6569 35.354C59.8314 34.2283 59.029 33.4055 58.2489 32.8034C58.4225 33.0159 58.5969 33.2418 58.7727 33.481C66.7446 44.361 52.5964 59.3062 42.9191 51.5825C52.4771 63.2098 69.1652 46.9657 60.6569 35.354ZM35.8077 25.8899L31.9223 22.2744L28.9586 25.2205L34.2781 30.5083C34.4309 32.1487 34.4696 33.7099 33.8252 34.0468C32.464 34.7578 30.5261 34.8948 29.5107 34.0698C28.4959 33.244 27.1571 36.3167 29.8571 38.083C32.5564 39.8486 36.8478 40.1226 38.162 41.3853C39.8004 42.9584 39.5307 46.6406 41.9684 50.2998C42.148 50.5687 42.3312 50.8227 42.5175 51.0693C52.1732 57.9361 65.7291 43.3027 57.8884 32.6019L57.7937 32.4738C53.6305 29.6707 50.1511 32.8589 47.5063 29.2537C44.2765 24.8509 43.4689 20.5162 40.862 19.392C38.2544 18.2685 36.9394 18.7047 36.9163 19.8741C36.8932 21.0435 40.0082 23.7726 38.878 25.0797C38.2127 25.8485 36.9014 25.8477 35.8077 25.8899ZM30.8838 21.3079L28.4691 19.0617L25.6163 21.8982L27.9535 24.2214L30.8838 21.3079ZM27.4305 18.0952L25.0166 15.849L22.2734 18.5751L24.6105 20.8984L27.4305 18.0952ZM23.978 14.8825L21.5633 12.6363L18.9311 15.2528L21.2683 17.5761L23.978 14.8825ZM20.5248 11.6699L18.1101 9.4229L15.5882 11.9298L17.9253 14.253L20.5248 11.6699ZM17.0715 8.45717L14.9981 6.52719L14.9631 4.29134L1.60531 0.0255367C1.60531 0.0255367 0.428901 -0.204047 0.0824591 0.713546C-0.263238 1.63114 0.589829 2.13548 0.589829 2.13548L7.86884 8.65935L13.4983 9.85244L14.5831 10.9307L17.0715 8.45717Z" fill="#429EBD"/>
</svg>
