<svg width="53" height="35" viewBox="0 0 67 49" fill="none" xmlns="http://www.w3.org/2000/svg">
<path fill-rule="evenodd" clip-rule="evenodd" d="M4.52147 35.7251C12.7423 24.7928 19.5245 13.0797 23.4294 0C31.6503 2.73307 39.0491 7.22311 50.5583 3.31873C53.0245 12.1036 56.5184 20.498 62.4785 28.1116L64.5337 27.1355L63.9172 25.1833L65.1503 25.3785L64.9448 26.745L65.5614 26.3546L67 28.8924L62.273 28.6972L43.9816 45.8765L46.4479 46.0717L47.0644 44.3147L48.092 45.0956L47.0644 46.0717L47.8865 46.2669L47.681 49L43.1595 46.0717L41.3098 43.7291C35.1442 35.5299 30.8282 27.1355 28.1564 17.3745C26.9233 12.494 25.8957 7.41833 25.0736 2.92829C21.1687 14.4462 14.3865 26.9402 7.39877 37.2869C6.37117 37.0916 5.34356 36.8964 4.31595 36.506L0 36.7012L1.43865 34.1633L2.05521 34.5538L1.84969 33.1873L3.08282 32.992L2.67178 34.749L4.52147 35.7251ZM34.5276 43.7291C27.1288 41.9721 19.319 40.4104 11.9202 38.4582C17.4693 32.0159 21.1687 24.2072 24.046 16.3984C25.0736 26.3546 27.7454 35.9203 34.5276 43.7291Z" fill="#429EBD"/>
</svg>
