<svg width="15" height="19" viewBox="0 0 44 50" fill="none" xmlns="http://www.w3.org/2000/svg">
<path fill-rule="evenodd" clip-rule="evenodd" d="M31.623 50H24.5575H17.485C17.485 50 17.5044 46.0467 17.485 43.3333C7.80791 45.2967 5.10796 38.3333 5.10796 38.3333C3.33982 35 1.57168 33.3333 1.57168 33.3333C-1.9646 31.3533 1.57168 31.6667 1.57168 31.6667C5.10796 31.6667 6.87611 35 6.87611 35C9.97919 39.9683 15.5011 39.1683 17.485 38.3333C17.485 36.6667 18.2594 34.1467 19.2531 33.3333C11.5299 32.5133 5.10089 28.3333 5.10089 20C5.10089 11.6667 6.87611 10 8.64425 8.33333C8.28708 7.51167 6.80715 4.475 8.69906 0C8.69906 0 12.1735 0 15.7097 5C17.462 3.34833 22.7823 3.33333 24.5522 3.33333C26.3186 3.33333 31.6389 3.34833 33.3912 5C36.9274 0 40.4089 0 40.4089 0C42.3008 4.475 40.8209 7.51167 40.4637 8.33333C42.2319 10 44 11.6667 44 20C44 28.3333 37.5781 32.5133 29.8549 33.3333C30.8486 34.1467 31.623 37.0167 31.623 38.3333V50Z" fill="#429EBD"/>
</svg>
