<svg width="20" height="20" viewBox="0 0 70 70" fill="none" xmlns="http://www.w3.org/2000/svg">
<path d="M14.6905 7.78124C14.6895 9.84392 13.9147 11.8217 12.5365 13.2795C11.1583 14.7373 9.28963 15.5557 7.34155 15.5547C5.39348 15.5537 3.52558 14.7333 2.14877 13.274C0.771962 11.8147 -0.000973118 9.83614 9.19481e-07 7.77346C0.000974957 5.71078 0.775779 3.73299 2.15396 2.27518C3.53215 0.817377 5.40082 -0.00103037 7.3489 9.73574e-07C9.29697 0.00103231 11.1649 0.821418 12.5417 2.28068C13.9185 3.73995 14.6914 5.71855 14.6905 7.78124ZM14.9108 21.3138H0.220357V70H14.9108V21.3138ZM38.1217 21.3138H23.5047V70H37.9748V44.4514C37.9748 30.2189 55.4932 28.8967 55.4932 44.4514V70H70V39.1628C70 15.1697 44.0714 16.0641 37.9748 27.8468L38.1217 21.3138Z" fill="#429EBD"/>
</svg>
