<svg width="24" height="15" viewBox="0 0 65 50" fill="none" xmlns="http://www.w3.org/2000/svg">
<path d="M54.3687 1.6534L50.2102 4.96708L32.504 18.3875L14.7979 4.83454L10.6394 1.52086C9.65972 0.694242 8.46381 0.178948 7.19981 0.0388126C5.93582 -0.101323 4.65929 0.139859 3.52837 0.732478C2.39745 1.3251 1.46185 2.24311 0.837466 3.37279C0.213085 4.50246 -0.0726345 5.79416 0.0157061 7.08784V45.4934C0.0157061 46.6886 0.481216 47.8349 1.30983 48.68C2.13844 49.5252 3.26228 50 4.43412 50H14.7979V24.4184L32.504 37.9713L50.2102 24.4184V50H60.574C61.7458 50 62.8696 49.5252 63.6982 48.68C64.5269 47.8349 64.9924 46.6886 64.9924 45.4934V7.08784C65.0534 5.80532 64.7478 4.53234 64.1127 3.42365C63.4777 2.31495 62.5406 1.41829 61.4153 0.842647C60.29 0.267008 59.025 0.0371865 57.774 0.181118C56.523 0.32505 55.34 0.836536 54.3687 1.6534Z" fill="#429EBD"/>
</svg>
