<svg width="17" height="17" viewBox="0 0 50 50" fill="none" xmlns="http://www.w3.org/2000/svg">
<path d="M49.9266 37.7916L47.6559 47.6349C47.3369 49.0264 46.1137 50 44.681 50C20.041 49.998 0 29.96 0 5.32257C0 3.891 0.973627 2.66646 2.36546 2.34909L12.2101 0.0786959C13.6439 -0.253514 15.1089 0.490589 15.7046 1.84814L20.248 12.4433C20.7791 13.6913 20.4209 15.1453 19.371 16.0027L14.1127 20.2242C17.4313 26.9836 22.928 32.4794 29.6903 35.7995L33.9954 30.5459C34.8439 29.4932 36.3091 29.129 37.5573 29.6695L48.154 34.2112C49.4285 34.8816 50.2587 36.3659 49.9266 37.7916Z" fill="#429EBD"/>
</svg>
